<svg xmlns="http://www.w3.org/2000/svg" width="160" height="32" viewBox="0 0 160 32">
  <rect width="160" height="32" fill="none"/>
  <g stroke="#263b35" stroke-width="1.5" stroke-linecap="round" stroke-linejoin="round">
    <g transform="translate(0)"><circle cx="16" cy="16" r="7" fill="#f2c14e"/><path d="M16 3v4M16 25v4M3 16h4M25 16h4M7 7l3 3M22 22l3 3M25 7l-3 3M10 22l-3 3" fill="none" stroke="#f2c14e"/></g>
    <g transform="translate(32)"><path d="M7 22c-4-1-4-7 1-8 1-6 10-8 13-3 6-1 8 8 2 11z" fill="#a8b9ba"/><path d="M8 14c2 2 9 3 14 0" fill="none" stroke="#d6e0dc"/></g>
    <g transform="translate(64)"><path d="M6 17c-3-1-3-6 1-7 2-5 10-6 12-2 6-1 8 7 2 9z" fill="#829da6"/><path d="M9 21l-2 5M16 21l-2 5M23 21l-2 5" fill="none" stroke="#5aa6d1" stroke-width="2"/></g>
    <g transform="translate(96)"><path d="M6 15c-3-1-3-6 1-7 2-5 10-6 12-2 6-1 8 7 2 9z" fill="#66757d"/><path d="M16 15l-5 8h5l-2 6 8-10h-5l3-4z" fill="#f2c14e"/><path d="M8 19l-2 5M25 19l-2 5" fill="none" stroke="#5aa6d1"/></g>
    <g transform="translate(128)"><path d="M16 5v22M7 10l18 12M25 10L7 22M11 6l5 4 5-4M11 26l5-4 5 4" fill="none" stroke="#d7edf2" stroke-width="2"/></g>
  </g>
</svg>
